<?xml version="1.0" standalone="no"?>
<!DOCTYPE svg PUBLIC "-//W3C//DTD SVG 20010904//EN"
 "http://www.w3.org/TR/2001/REC-SVG-20010904/DTD/svg10.dtd">
<svg version="1.0" xmlns="http://www.w3.org/2000/svg"
 width="200.000000pt" height="200.000000pt" viewBox="0 0 200.000000 200.000000"
 preserveAspectRatio="xMidYMid meet">
<metadata>
Created by potrace 1.14, written by Peter Selinger 2001-2017
</metadata>
<g transform="translate(0.000000,200.000000) scale(0.100000,-0.100000)"
fill="#000000" stroke="none">
<path d="M609 1676 c-23 -11 -24 -16 -24 -111 0 -90 3 -105 26 -144 l26 -45
-18 -40 c-25 -57 -40 -161 -31 -221 6 -45 10 -50 32 -50 24 0 25 2 22 62 -12
220 146 393 358 393 212 0 370 -173 358 -393 -3 -60 -2 -62 22 -62 22 0 26 5
32 50 9 60 -6 164 -31 221 -18 40 -18 40 7 84 22 36 27 59 30 134 5 114 -5
131 -71 128 -62 -2 -146 -36 -189 -74 l-35 -33 -123 0 -123 0 -35 33 c-60 54
-187 91 -233 68z m110 -71 c23 -8 56 -24 72 -36 l29 -21 -37 -25 c-21 -14 -54
-41 -74 -60 l-36 -34 -17 41 c-9 22 -16 65 -16 95 0 63 6 66 79 40z m641 -40
c0 -30 -7 -73 -16 -95 l-17 -41 -36 34 c-20 19 -53 46 -74 60 l-37 25 29 22
c35 24 97 48 129 49 20 1 22 -3 22 -54z"/>
<path d="M745 1159 c-7 -10 18 -21 85 -39 42 -11 62 -7 44 9 -17 15 -124 40
-129 30z"/>
<path d="M1181 1151 c-30 -9 -56 -22 -59 -29 -5 -16 2 -15 71 6 32 9 58 21 58
27 1 15 -12 14 -70 -4z"/>
<path d="M776 1061 c-22 -3 -41 -12 -44 -20 -4 -11 8 -12 59 -6 69 8 79 11 79
26 0 10 -31 10 -94 0z"/>
<path d="M1120 1062 c0 -13 18 -18 88 -27 33 -5 52 -3 52 3 0 16 -9 19 -77 27
-41 4 -63 3 -63 -3z"/>
<path d="M528 844 c-60 -32 -79 -134 -33 -179 40 -41 165 -33 165 10 0 20 -20
29 -33 16 -15 -15 -80 -14 -95 1 -7 7 -12 27 -12 45 0 63 68 103 119 71 15 -9
23 -9 36 2 16 13 15 15 -5 32 -27 22 -104 23 -142 2z"/>
<path d="M732 751 l-71 -111 28 0 c20 0 31 7 39 25 10 22 18 25 62 25 45 0 52
-3 60 -25 7 -17 17 -25 34 -25 l24 0 -27 108 c-25 99 -29 107 -53 110 -22 3
-33 -10 -96 -107z m100 4 c3 -27 0 -30 -29 -33 -39 -4 -39 -2 -11 48 24 41 33
38 40 -15z"/>
<path d="M937 840 c-4 -17 0 -20 29 -20 40 0 40 -3 19 -100 -18 -84 -19 -80 9
-80 25 0 33 21 52 140 6 39 8 40 45 40 32 0 39 3 39 20 0 19 -7 20 -94 20 -85
0 -94 -2 -99 -20z"/>
<path d="M1146 773 c-10 -49 -20 -98 -23 -110 -5 -22 -3 -23 75 -23 76 0 92 6
92 36 0 2 -25 4 -55 4 -62 0 -61 -4 -40 90 19 87 19 90 -9 90 -21 0 -25 -7
-40 -87z"/>
<path d="M1355 848 c-2 -7 -13 -57 -23 -111 l-19 -98 86 3 c72 3 86 6 89 21 3
15 -5 17 -57 17 -42 0 -61 4 -61 13 0 26 17 36 65 39 38 2 51 7 53 21 3 14 -4
17 -48 17 -48 0 -51 2 -48 23 3 20 9 22 66 25 54 3 62 6 62 22 0 18 -7 20 -80
20 -56 0 -82 -4 -85 -12z"/>
<path d="M176 543 c-13 -47 -18 -93 -8 -93 8 0 32 79 32 105 0 13 -19 3 -24
-12z"/>
<path d="M1010 550 c0 -5 7 -10 15 -10 8 0 15 5 15 10 0 6 -7 10 -15 10 -8 0
-15 -4 -15 -10z"/>
<path d="M46 534 c-11 -29 -6 -44 14 -44 11 0 20 -4 20 -10 0 -10 -14 -14 -37
-11 -7 1 -13 -3 -13 -9 0 -7 14 -10 33 -8 25 2 33 8 35 26 3 17 -2 25 -17 29
-29 7 -26 23 4 23 14 0 25 5 25 10 0 17 -57 12 -64 -6z"/>
<path d="M756 534 c-11 -29 -6 -44 14 -44 11 0 20 -4 20 -10 0 -10 -14 -14
-37 -11 -7 1 -13 -3 -13 -9 0 -7 14 -10 33 -8 25 2 33 8 35 26 3 17 -2 25 -17
29 -29 7 -26 23 4 23 14 0 25 5 25 10 0 17 -57 12 -64 -6z"/>
<path d="M1310 536 c0 -8 -3 -21 -6 -30 -5 -12 0 -16 20 -16 14 0 26 -4 26
-10 0 -10 -13 -14 -42 -11 -10 1 -18 -3 -18 -8 0 -16 56 -13 70 4 15 18 6 45
-15 45 -8 0 -15 5 -15 10 0 6 9 10 19 10 11 0 23 5 26 10 4 6 -8 10 -29 10
-24 0 -36 -5 -36 -14z"/>
<path d="M314 528 c-5 -7 -9 -26 -9 -43 0 -22 5 -31 20 -33 15 -3 17 -1 9 8
-13 13 -7 50 7 50 5 0 6 7 3 15 -7 18 -19 19 -30 3z"/>
<path d="M374 530 c-5 -5 -8 -26 -6 -45 3 -28 8 -35 26 -34 11 0 15 3 9 6 -15
6 -18 53 -3 53 5 0 7 7 4 15 -7 17 -16 19 -30 5z"/>
<path d="M884 528 c-5 -7 -9 -26 -9 -43 0 -25 4 -30 25 -32 14 -1 19 0 13 3
-15 7 -18 54 -3 54 5 0 7 7 4 15 -7 18 -19 19 -30 3z"/>
<path d="M214 509 c-14 -15 -16 -24 -8 -37 13 -20 64 -29 64 -12 0 7 -7 10
-15 7 -8 -4 -17 -2 -20 3 -4 6 7 10 24 10 34 0 39 11 15 34 -21 21 -37 20 -60
-5z m46 -9 c0 -5 -7 -10 -15 -10 -8 0 -15 5 -15 10 0 6 7 10 15 10 8 0 15 -4
15 -10z"/>
<path d="M436 514 c-18 -17 -19 -24 -10 -48 7 -18 64 -22 64 -5 0 6 -6 9 -13
6 -8 -3 -20 -1 -28 4 -10 6 -4 9 19 9 25 0 32 4 32 19 0 17 -18 31 -40 31 -5
0 -16 -7 -24 -16z m44 -14 c0 -5 -7 -10 -15 -10 -8 0 -15 5 -15 10 0 6 7 10
15 10 8 0 15 -4 15 -10z"/>
<path d="M524 502 c-3 -15 -7 -33 -10 -39 -2 -7 3 -13 11 -13 8 0 15 8 15 19
0 10 7 24 15 31 20 17 19 25 -5 27 -14 1 -22 -6 -26 -25z"/>
<path d="M590 515 c-14 -16 -6 -35 16 -35 8 0 14 -5 14 -11 0 -6 -9 -9 -20 -6
-11 3 -23 1 -26 -5 -4 -5 7 -8 27 -6 41 4 50 30 17 46 -23 11 -23 11 5 11 16
1 26 5 22 11 -9 15 -41 12 -55 -5z"/>
<path d="M945 515 c-14 -47 -15 -67 -3 -63 7 3 14 15 16 27 2 12 10 25 18 28
8 3 14 8 14 12 0 11 -42 8 -45 -4z"/>
<path d="M1004 495 c-6 -32 -1 -55 10 -44 11 11 17 79 8 79 -6 0 -14 -16 -18
-35z"/>
<path d="M1056 514 c-18 -17 -19 -24 -10 -48 7 -18 64 -23 64 -5 0 6 -8 8 -19
4 -11 -3 -22 -1 -26 5 -4 6 6 10 24 10 24 0 31 4 31 19 0 17 -18 31 -40 31 -5
0 -16 -7 -24 -16z m44 -14 c0 -5 -7 -10 -15 -10 -8 0 -15 5 -15 10 0 6 7 10
15 10 8 0 15 -4 15 -10z"/>
<path d="M1151 521 c-17 -11 -7 -41 14 -41 9 0 13 -5 10 -10 -4 -6 -15 -8 -26
-5 -11 4 -19 2 -19 -5 0 -7 13 -10 32 -8 40 4 50 32 16 43 l-23 8 23 4 c12 2
22 9 22 14 0 11 -31 12 -49 0z"/>
<path d="M1434 501 c-3 -14 -7 -32 -10 -38 -2 -7 3 -13 11 -13 8 0 15 12 17
28 2 16 9 27 18 27 10 0 14 -8 12 -27 -4 -37 11 -36 25 2 6 17 16 30 22 30 6
0 11 -13 11 -30 0 -16 5 -30 11 -30 6 0 9 16 7 38 l-3 37 -58 1 c-54 1 -58 0
-63 -25z"/>
<path d="M1595 514 c-27 -27 -15 -58 23 -62 19 -2 32 1 32 8 0 7 -8 9 -19 5
-11 -3 -22 -1 -26 5 -4 6 6 10 24 10 24 0 31 4 31 19 0 17 -18 31 -40 31 -5 0
-16 -7 -25 -16z m45 -14 c0 -5 -7 -10 -15 -10 -8 0 -15 5 -15 10 0 6 7 10 15
10 8 0 15 -4 15 -10z"/>
<path d="M1691 511 c-25 -25 -26 -34 -7 -51 35 -28 93 11 70 48 -16 25 -40 26
-63 3z m44 -11 c10 -16 -16 -43 -28 -31 -11 11 -2 41 12 41 5 0 13 -5 16 -10z"/>
<path d="M1774 514 c3 -9 6 -27 6 -40 0 -30 23 -31 43 -1 l16 22 0 -22 c1 -36
29 -27 51 17 11 22 16 40 11 40 -6 0 -17 -12 -25 -27 l-14 -28 -7 28 c-4 15
-11 27 -16 27 -4 0 -15 -12 -23 -27 l-14 -28 -7 28 c-4 15 -12 27 -17 27 -6 0
-7 -7 -4 -16z"/>
<path d="M1920 515 c-14 -16 -6 -35 16 -35 8 0 14 -5 14 -11 0 -6 -9 -9 -20
-6 -11 3 -23 1 -26 -5 -4 -5 7 -8 27 -6 41 4 51 32 17 43 -22 8 -22 8 5 12 15
2 25 9 22 14 -9 14 -41 11 -55 -6z"/>
<path d="M653 450 c2 -24 13 -26 21 -4 8 22 8 24 -8 24 -9 0 -14 -9 -13 -20z"/>
<path d="M1210 449 c0 -11 5 -17 10 -14 6 3 10 13 10 21 0 8 -4 14 -10 14 -5
0 -10 -9 -10 -21z"/>
</g>
</svg>
